{"title":"Origins (2014) Online Premiere WEBRip 1080p h264-[f1d] MP4","uid":12139007,"size":2423782474,"categoryP":"video","categoryS":"movies","magnet":"?xt=urn:btih:2620e9b4272f44ca71010e3de1fc8e5dea309865&amp;dn=Origins+%282014%29+Online+Premiere+WEBRip+1080p+h264-%5Bf1d%5D+MP4&amp;tr=udp%3A%2F%2Ftracker.openbittorrent.com%3A80&amp;tr=udp%3A%2F%2Fopen.demonii.com%3A1337&amp;tr=udp%3A%2F%2Ftracker.coppersurfer.tk%3A6969&amp;tr=udp%3A%2F%2Fexodus.desync.com%3A6969","seeders":1,"leechers":0,"uploader":"F1_Dance","files":1,"time":1437305247,"description":"&quot;Origins&quot; takes a journey through the biological roots of where we have come from and where we have gone. Using fire as a metaphor for technology, the film looks at the advances of our civilization and how the recklessness of unchecked technology is now choking out the environment and poisoning our bodies. Interviews with the biggest names in the health and green space create compelling context and arguments for how we can better coexist with nature. &quot;Origins&quot; shows how man, technology, and nature can walk together in balance.\n\n\n===\nGeneral\nComplete name : Origins.(2014).Online.Premiere.WEBRip.1080p.h264-[f1d].MP4\nFormat : MPEG-4\nFormat profile : Base Media\nCodec ID : isom\nFile size : 2.26 GiB\nDuration : 1h 41mn\nOverall bit rate : 3 175 Kbps\nEncoded date : UTC 1904-01-01 00:00:00\nTagged date : UTC 1904-01-01 00:00:00\nWriting application : Lavf55.33.100\n\nVideo\nID : 1\nFormat : AVC\nFormat/Info : Advanced Video Codec\nFormat profile : High@L4\nFormat settings, CABAC : Yes\nFormat settings, ReFrames : 3 frames\nCodec ID : avc1\nCodec ID/Info : Advanced Video Coding\nDuration : 1h 41mn\nBit rate : 3 041 Kbps\nWidth : 1 920 pixels\nHeight : 1 080 pixels\nDisplay aspect ratio : 16:9\nFrame rate mode : Constant\nFrame rate : 29.970 fps\nColor space : YUV\nChroma subsampling : 4:2:0\nBit depth : 8 bits\nScan type : Progressive\nBits/(Pixel*Frame) : 0.049\nStream size : 2.16 GiB (96%)\nEncoded date : UTC 1904-01-01 00:00:00\nTagged date : UTC 1904-01-01 00:00:00\n\nAudio\nID : 2\nFormat : AAC\nFormat/Info : Advanced Audio Codec\nFormat profile : LC\nCodec ID : 40\nDuration : 1h 41mn\nBit rate mode : Constant\nBit rate : 126 Kbps\nChannel(s) : 2 channels\nChannel positions : Front: L R\nSampling rate : 44.1 KHz\nCompression mode : Lossy\nStream size : 91.4 MiB (4%)\nEncoded date : UTC 1904-01-01 00:00:00\nTagged date : UTC 1904-01-01 00:00:00","torrent":{"xt":"urn:btih:2620e9b4272f44ca71010e3de1fc8e5dea309865","amp;dn":"Origins+%282014%29+Online+Premiere+WEBRip+1080p+h264-%5Bf1d%5D+MP4","amp;tr":["udp%3A%2F%2Ftracker.openbittorrent.com%3A80","udp%3A%2F%2Fopen.demonii.com%3A1337","udp%3A%2F%2Ftracker.coppersurfer.tk%3A6969","udp%3A%2F%2Fexodus.desync.com%3A6969"],"infoHash":"2620e9b4272f44ca71010e3de1fc8e5dea309865","infoHashBuffer":{"type":"Buffer","data":[38,32,233,180,39,47,68,202,113,1,14,61,225,252,142,93,234,48,152,101]},"announce":[],"urlList":[]}}